<svg xmlns="http://www.w3.org/2000/svg" viewBox="0 0 512 512">
  <rect width="512" height="512" rx="120" fill="#F3E1C7"/>
  <circle cx="256" cy="256" r="196" fill="#ECD6B6"/>
  <g fill="#8B5E3C">
    <path d="M171 233c22 0 41-27 41-55s-19-48-41-48-41 20-41 48 19 55 41 55Zm170 0c22 0 41-27 41-55s-19-48-41-48-41 20-41 48 19 55 41 55ZM132 307c20 0 34-19 34-40s-14-40-34-40-34 19-34 40 14 40 34 40Zm248 0c20 0 34-19 34-40s-14-40-34-40-34 19-34 40 14 40 34 40Z"/>
    <path d="M256 434c78 0 150-58 150-126 0-58-46-96-150-96S106 250 106 308c0 68 72 126 150 126Z"/>
  </g>
  <path d="M166 150c42-40 104-40 146 0 42-40 104-40 146 0 55 53 55 140 0 193l-146 140-146-140c-55-53-55-140 0-193Z" fill="#D99A82" opacity="0.22"/>
</svg>
